<svg width="338" height="338" viewBox="0 0 338 338" fill="none" xmlns="http://www.w3.org/2000/svg">
<path fill-rule="evenodd" clip-rule="evenodd" d="M0 168.706C0 75.5322 75.5322 0 168.706 0C261.88 0 337.412 75.5322 337.412 168.706H0Z" fill="#E43535"/>
<path fill-rule="evenodd" clip-rule="evenodd" d="M0 168.706C0 261.88 75.5322 337.412 168.706 337.412C261.88 337.412 337.412 261.88 337.412 168.706H0Z" fill="#ECECEC"/>
<path d="M6.02515 168.706H331.386" stroke="#595959" stroke-width="12.0504" stroke-linecap="square"/>
<path d="M168.706 216.908C195.327 216.908 216.908 195.327 216.908 168.706C216.908 142.085 195.327 120.504 168.706 120.504C142.085 120.504 120.504 142.085 120.504 168.706C120.504 195.327 142.085 216.908 168.706 216.908Z" fill="white" stroke="#595959" stroke-width="24.1008" stroke-linecap="round"/>
</svg>
