<svg width="571" height="500" viewBox="0 0 571 500" fill="none" xmlns="http://www.w3.org/2000/svg">
<path d="M285.295 0C322.761 0 359.86 6.46644 394.473 19.0301C429.087 31.5938 460.538 50.0087 487.03 73.2233C513.522 96.438 534.537 123.998 548.874 154.329C563.212 184.661 570.591 217.17 570.591 250C570.591 316.304 540.533 379.893 487.03 426.777C433.527 473.661 360.961 500 285.295 500C247.83 500 210.731 493.534 176.118 480.97C141.504 468.406 110.053 449.991 83.5611 426.777C30.0578 379.893 0 316.304 0 250C0 183.696 30.0578 120.107 83.5611 73.2233C137.064 26.3392 209.63 0 285.295 0ZM285.295 50C168.895 50 72.7503 126.25 58.7709 225H174.886C187.439 181.75 232.231 150 285.295 150C338.36 150 383.152 181.75 395.705 225H511.82C497.841 126.25 401.696 50 285.295 50ZM285.295 450C401.696 450 497.841 373.75 511.82 275H395.705C383.152 318.25 338.36 350 285.295 350C232.231 350 187.439 318.25 174.886 275H58.7709C72.7503 373.75 168.895 450 285.295 450ZM285.295 200C270.162 200 255.649 205.268 244.949 214.645C234.248 224.021 228.236 236.739 228.236 250C228.236 263.261 234.248 275.979 244.949 285.355C255.649 294.732 270.162 300 285.295 300C300.428 300 314.942 294.732 325.642 285.355C336.343 275.979 342.355 263.261 342.355 250C342.355 236.739 336.343 224.021 325.642 214.645C314.942 205.268 300.428 200 285.295 200Z" fill="black" fill-opacity="0.1"/>
</svg>
