<svg width="206" height="202" viewBox="0 0 206 202" fill="none" xmlns="http://www.w3.org/2000/svg">
<path d="M205.908 102.685C200.436 99.8858 194.412 99.3973 188.472 98.7538C168.104 96.5414 147.641 95.9801 127.171 95.6654C125.885 95.6443 125.252 95.3483 124.792 94.0449C121.365 84.4157 113.053 78.5443 103.072 78.5795C93.1602 78.6148 84.8627 84.4885 81.5101 93.965C81.0737 95.198 80.5508 95.6607 79.1911 95.6701C63.7008 95.7891 48.2296 96.3872 32.7777 97.4644C23.6648 98.1009 14.5303 98.7585 5.58525 100.816C3.62302 101.268 1.74058 102.004 0 103C0.479626 68.0931 14.1274 39.9384 42.6268 19.3203C76.8889 -5.46658 123.06 -5.96682 157.689 15.3113C194.601 37.9891 207.22 75.8458 205.908 102.685Z" fill="black" fill-opacity="0.1"/>
<path d="M64.0356 107.03C69.0175 107.03 74.0018 107.073 78.9862 107.002C80.3305 106.983 81.0685 107.223 81.6221 108.622C85.2429 117.946 93.582 123.641 103.292 123.599C113.081 123.555 120.969 117.934 124.667 108.307C125.036 107.345 125.503 106.967 126.584 107.002C137.068 107.366 147.559 107.589 158.038 108.037C167.472 108.441 176.904 109.002 186.293 110.046C191.897 110.67 197.5 111.288 202.93 112.937C204.682 113.47 205.19 114.322 204.941 116.106C199.436 155.211 168.601 188.968 129.378 198.754C74.3038 212.491 19.3183 181.451 3.78066 127.842C2.58251 123.712 1.80371 119.492 1.04648 115.265C0.806852 113.954 1.52574 113.571 2.46749 113.217C5.67613 112.001 9.05252 111.44 12.4289 110.964C20.9693 109.764 29.5601 109.046 38.1772 108.617C46.7943 108.187 55.4114 107.751 64.0284 107.319L64.0356 107.03ZM192.022 121.907C189.468 121.578 187.05 121.203 184.617 120.968C168.246 119.398 151.815 118.873 135.385 118.295C133.468 118.23 132.369 118.765 131.24 120.353C117.293 139.985 88.152 139.677 74.6153 119.788C73.8605 118.68 73.108 118.246 71.7565 118.295C53.4009 118.971 35.0308 119.328 16.7806 121.703C14.6239 121.984 14.2789 122.524 14.83 124.479C18.6377 137.959 24.9687 150.154 34.6306 160.466C57.3667 184.723 85.6023 194.533 118.741 189.4C141.597 185.859 160.273 174.575 174.764 156.852C183.189 146.54 188.871 134.892 192.022 121.907Z" fill="black" fill-opacity="0.1"/>
<path d="M118.994 101.295C119.053 103.476 118.679 105.646 117.895 107.677C117.111 109.709 115.933 111.559 114.431 113.117C112.928 114.676 111.133 115.912 109.151 116.75C107.169 117.589 105.042 118.014 102.895 118C100.748 117.985 98.6261 117.532 96.6553 116.667C94.6844 115.802 92.9051 114.542 91.4232 112.964C89.9413 111.385 88.7871 109.519 88.0295 107.478C87.2719 105.437 86.9262 103.261 87.0131 101.081C87.0609 92.196 94.2943 84.9661 103.104 85.0001C111.856 85.0317 119.013 92.3659 118.994 101.295Z" fill="black" fill-opacity="0.1"/>
</svg>
