<svg width="514" height="234" viewBox="0 0 514 234" fill="none" xmlns="http://www.w3.org/2000/svg">
<path d="M512.889 233.155C499.258 226.799 484.253 225.689 469.457 224.228C418.725 219.205 367.753 217.93 316.764 217.216C313.563 217.168 311.986 216.496 310.839 213.536C302.303 191.673 281.599 178.341 256.737 178.421C232.049 178.501 211.381 191.838 203.03 213.355C201.943 216.155 200.641 217.205 197.254 217.227C158.67 217.497 120.133 218.855 81.6446 221.301C58.9457 222.746 36.1929 224.239 13.9121 228.91C9.02444 229.937 4.33555 231.609 0 233.87C1.19468 154.611 35.1894 90.6833 106.177 43.8682C191.52 -12.4123 306.526 -13.5481 392.782 34.7654C484.725 86.2573 516.157 172.214 512.889 233.155Z" fill="white" fill-opacity="0.1"/>
</svg>
